<svg clip-rule="evenodd" fill-rule="evenodd" height="512" stroke-linejoin="round" stroke-miterlimit="2" viewBox="0 0 32 32" width="512" xmlns="http://www.w3.org/2000/svg"><g><path d="m5.995 23 20.18.002-.175-8.002s-.536-5-5-5h-11s-4.005.612-4.005 5z" fill="#9d150e"/><path d="m16 23h10v-8s0-5-5-5-5 5-5 5z" fill="#e82a22"/><path d="m17 12-10 .033 3-2.033h10z" fill="#ffd97a"/><path d="m14.999 24h-9c-.552 0-1-.448-1-1v-7.98c0-1.596.63-3.126 1.752-4.255 1.124-1.13 2.648-1.765 4.237-1.765h9.731c1.081-.057 2.166.217 3.214.823 1.897 1.098 3.066 3.125 3.066 5.32v7.857c0 .552-.448 1-1 1h-9v7c0 .553-.448 1-1 1s-1-.447-1-1zm1.605-13h-5.616c-1.057 0-2.071.423-2.818 1.175-.75.755-1.171 1.778-1.171 2.845v6.98h8v-6.857c0-1.556.587-3.027 1.605-4.143zm8.395 11v-6.857c0-1.481-.788-2.848-2.067-3.588-1.262-.73-2.604-.73-3.866 0-1.279.74-2.067 2.107-2.067 3.588v6.857zm-2-6.999h-4c-.552 0-1 .448-1 1s.448 1 1 1h4c.552 0 1-.448 1-1s-.448-1-1-1zm-8-14.001v4c0 .552.448 1 1 1s1-.448 1-1v-4c0-.552-.448-1-1-1s-1 .448-1 1zm-8.832 1.555 2 3c.306.459.927.583 1.387.277.459-.306.583-.927.277-1.387l-2-3c-.306-.459-.927-.583-1.387-.277-.459.306-.583.927-.277 1.387zm18-1.11-2 3c-.306.46-.182 1.081.277 1.387.46.306 1.081.182 1.387-.277l2-3c.306-.46.182-1.081-.277-1.387-.46-.306-1.081-.182-1.387.277z"/></g></svg>